<?xml version="1.0" encoding="UTF-8"?>
<svg id="Camada_1" data-name="Camada 1" xmlns="http://www.w3.org/2000/svg" version="1.1" viewBox="0 0 277.6 57.6">
  <defs>
    <style>
      .cls-1 {
        fill: #0a2240;
        stroke-width: 0px;
      }
    </style>
  </defs>
  <g id="Layer_2" data-name="Layer 2">
    <g id="Layer_1-2" data-name="Layer 1-2">
      <path class="cls-1" d="M57.1,6.4C52.1,2.3,45.2,0,37.9,0c-6.9-.1-13.7,2.1-19.2,6.4-4.3,3.6-6.7,8.1-6.7,12.8s.2,2.4.5,3.6c1.1-3.7,3.2-6.9,6.2-9.2,5.5-4.3,12.3-6.5,19.2-6.4,7.2,0,14.2,2.3,19.2,6.4,3,2.3,5.2,5.6,6.3,9.2.3-1.2.5-2.4.5-3.6-.1-4.7-2.5-9.2-6.8-12.8Z"/>
      <path class="cls-1" d="M37.9,50.4C18.4,50.4,2.4,38.3.2,22.8c-.1,1.2-.2,2.4-.2,3.6,0,17.2,17,31.2,37.9,31.2s37.9-14,37.9-31.2,0-2.4-.3-3.6c-2.1,15.5-18.2,27.6-37.6,27.6Z"/>
      <path class="cls-1" d="M113.7,28.3c0,7.5-4.2,11.2-10.4,11.2-3.2,0-6.4-1-8.8-3.1l3.6-5.8c1.2,1.1,2.8,1.7,4.4,1.7,2.3,0,3.7-1.2,3.7-4.6V11.3h7.5v17Z"/>
      <path class="cls-1" d="M153.7,25.1c0,8.2-6.1,14.3-14.6,14.3s-14.6-6.1-14.6-14.3,6.1-14.4,14.6-14.4,14.6,6.2,14.6,14.4ZM132.2,25.1c0,4.2,2.8,7.1,6.8,7.1s6.8-2.9,6.8-7.1-2.7-7.1-6.8-7.1-6.8,2.9-6.8,7.1h0Z"/>
      <path class="cls-1" d="M176.9,11.3c7.4,0,10.7,3,10.7,7.9s-1.4,4.8-3.7,5.8c2.5.9,4.2,3.3,4.2,5.9,0,4.9-3.3,7.9-10.6,7.9h-13.1V11.3h12.5ZM172,17.4v4.6h4.7c2.1,0,3.1-.8,3.1-2.3s-1-2.3-3.1-2.3h-4.7ZM172,28.1v4.7h5.2c2.1,0,3.3-.8,3.3-2.4s-1.1-2.4-3.3-2.4h-5.2Z"/>
      <path class="cls-1" d="M226,39h-8l-1.8-5.3h-10.3l-1.8,5.3h-7.8l10.5-27.7h8.9l10.3,27.7ZM208.2,27h5.7l-2.8-8.2-2.9,8.2Z"/>
      <path class="cls-1" d="M255.4,19.8c-2.4-1.5-5.2-2.3-8-2.3s-3.6.5-3.6,1.8,2.8,1.7,5.6,2.3l.9.2c5.7,1.1,8.6,3.9,8.6,8.1,0,7-5.9,9.6-11.8,9.6s-9.5-1.2-12.6-3.4l3.7-6.1c2.7,1.8,5.8,2.8,9,2.8s3.5-.5,3.5-1.9-1.7-1.7-5.2-2.3l-1-.2c-6.4-1.1-9-3.8-8.9-8.7.1-5.3,4.6-8.8,11.2-8.8,4.1-.1,8.1.9,11.7,2.9l-3.1,6Z"/>
      <path class="cls-1" d="M277.6,39h-7.5V11.3h7.5v27.7Z"/>
    </g>
  </g>
</svg>